<svg xmlns="http://www.w3.org/2000/svg"
     xmlns:xlink="http://www.w3.org/1999/xlink"
     width="128" height="128"  viewbox="0 0 128 128" version="1.1">
    <path fill="currentColor" d="M 60.375 6.53125 C 59.227574 6.53125 58.3125 7.4463238 58.3125 8.59375 L 58.3125 18.8125 C 50.001587 19.848917 42.388944 23.143974 36.09375 28.03125 L 28.84375 20.78125 C 28.032397 19.969897 26.748853 19.969897 25.9375 20.78125 L 20.78125 25.9375 C 19.969897 26.748853 19.969897 28.032397 20.78125 28.84375 L 28.03125 36.09375 C 23.143974 42.388944 19.848917 50.001587 18.8125 58.3125 L 8.59375 58.3125 C 7.4463238 58.3125 6.53125 59.227574 6.53125 60.375 L 6.53125 67.625 C 6.53125 68.772426 7.4463238 69.6875 8.59375 69.6875 L 18.8125 69.6875 C 19.849759 78.005162 23.134066 85.604772 28.03125 91.90625 L 20.78125 99.15625 C 19.969897 99.967603 19.969897 101.25115 20.78125 102.0625 L 25.9375 107.21875 C 26.748853 108.0301 28.032397 108.0301 28.84375 107.21875 L 36.09375 99.96875 C 42.395228 104.86593 49.994838 108.15024 58.3125 109.1875 L 58.3125 119.40625 C 58.3125 120.55368 59.227574 121.46875 60.375 121.46875 L 67.625 121.46875 C 68.772426 121.46875 69.6875 120.55368 69.6875 119.40625 L 69.6875 109.1875 C 77.998413 108.15108 85.611055 104.85603 91.90625 99.96875 L 99.15625 107.21875 C 99.967603 108.0301 101.25115 108.0301 102.0625 107.21875 L 107.21875 102.0625 C 108.0301 101.25115 108.0301 99.967603 107.21875 99.15625 L 99.96875 91.90625 C 104.85603 85.611055 108.15108 77.998413 109.1875 69.6875 L 119.40625 69.6875 C 120.55368 69.6875 121.46875 68.772426 121.46875 67.625 L 121.46875 60.375 C 121.46875 59.227574 120.55368 58.3125 119.40625 58.3125 L 109.1875 58.3125 C 108.15024 49.994838 104.86593 42.395228 99.96875 36.09375 L 107.21875 28.84375 C 108.0301 28.032397 108.0301 26.748853 107.21875 25.9375 L 102.0625 20.78125 C 101.25115 19.969897 99.967603 19.969897 99.15625 20.78125 L 91.90625 28.03125 C 85.604772 23.134066 78.005162 19.849759 69.6875 18.8125 L 69.6875 8.59375 C 69.6875 7.4463238 68.772426 6.53125 67.625 6.53125 L 60.375 6.53125 z "/>
</svg>